<svg id="Layer_1" data-name="Layer 1" xmlns="http://www.w3.org/2000/svg" viewBox="0 0 489.1 75.13"><defs><style>.cls-1{fill:#17acff;}.cls-2{fill:#083e7f;}.cls-3{fill:#0de3f9;}</style></defs><path class="cls-1" d="M317.94,70.43H347V86.14H300.32V23.75h17.62Zm35.63-46.68h17.62V86.14H353.57Zm70.37,0h19.89l-24,62.39H400L376,23.75h19.88L410,60.26ZM497,39.46h-32.6v7h29.69v15.7H464.44v8.27H497V86.14H446.82V23.75H497Z" transform="translate(-7.94 -17.56)"/><polygon class="cls-2" points="117.35 36.16 100.6 6.3 82.95 6.3 82.95 68.65 100.6 68.65 100.6 35.34 117.35 65.19 134.09 35.34 134.09 68.83 151.75 68.83 151.75 6.3 134.09 6.3 117.35 36.16"/><path class="cls-2" d="M280.27,39A32.14,32.14,0,0,0,267,27.87a44.64,44.64,0,0,0-19.3-4h-23.3V86.39h23.3a44.64,44.64,0,0,0,19.3-4,31.94,31.94,0,0,0,13.24-11.15A28.4,28.4,0,0,0,285,55.08,28.21,28.21,0,0,0,280.27,39ZM264.75,63A14.48,14.48,0,0,1,259,68.41a17.42,17.42,0,0,1-8.33,2h-8.55V39.88h8.55a17.42,17.42,0,0,1,8.33,2,14.64,14.64,0,0,1,5.78,5.41,14.89,14.89,0,0,1,2.09,7.83A15.09,15.09,0,0,1,264.75,63Z" transform="translate(-7.94 -17.56)"/><path class="cls-2" d="M209.37,51.44a77.2,77.2,0,0,0-13.06-3.82,66.3,66.3,0,0,1-7-1.78,7.88,7.88,0,0,1-3.18-1.73,3.57,3.57,0,0,1-.91-2.59,3.45,3.45,0,0,1,1.64-3,8.24,8.24,0,0,1,4.73-1.14A27.28,27.28,0,0,1,200.5,39a34.26,34.26,0,0,1,8.92,4.68l8.83-12.47Q207.69,22.77,192,22.77a31,31,0,0,0-13,2.55,19.83,19.83,0,0,0-8.65,7.19,19.28,19.28,0,0,0-3,10.83q0,6.19,3,10a19.47,19.47,0,0,0,8,5.83,86.55,86.55,0,0,0,13,3.87q5.08,1.19,7.1,1.77a7.28,7.28,0,0,1,2.86,1.41,3,3,0,0,1,.87,2.28,3.58,3.58,0,0,1-1.91,3.23,10.78,10.78,0,0,1-5.46,1.14q-10.94,0-20.66-7.65l-9.83,11.74a39.65,39.65,0,0,0,13.56,7.87,49.27,49.27,0,0,0,16.29,2.69q11.84,0,18.79-5.55t7-15.38a15,15,0,0,0-2.77-9.38A18.44,18.44,0,0,0,209.37,51.44Z" transform="translate(-7.94 -17.56)"/><path class="cls-1" d="M27.46,48.3q1-2.61,2.22-5.1A49.85,49.85,0,0,0,44.84,52l-7.3,19.29a54,54,0,0,1-13.49-7.55A55.18,55.18,0,0,1,27.46,48.3Z" transform="translate(-7.94 -17.56)"/><path class="cls-1" d="M20.83,61a44.28,44.28,0,0,1-5-5.39c-4.26-5.47-6.28-11.09-5.21-14.44a37.32,37.32,0,0,1,10.13-14.3,19.5,19.5,0,0,0,4,10.92,27.93,27.93,0,0,0,2.35,2.87,61.31,61.31,0,0,0-2.86,6.41A58.78,58.78,0,0,0,20.83,61Z" transform="translate(-7.94 -17.56)"/><path class="cls-3" d="M60.31,20.87c2.57,2.07,4.37,6.67,4.94,12.82a58,58,0,0,1-1.69,19A53.36,53.36,0,0,1,49.32,50Z" transform="translate(-7.94 -17.56)"/><path class="cls-3" d="M57.06,19.63,46,48.8a45.58,45.58,0,0,1-14.71-8.69A51.87,51.87,0,0,1,43.49,25.59C48.44,21.58,53.52,19.39,57.06,19.63Z" transform="translate(-7.94 -17.56)"/><path class="cls-2" d="M36.31,74.52,30.7,89.35C27.17,86.44,24,78.26,23.91,67.92A57.91,57.91,0,0,0,36.31,74.52Z" transform="translate(-7.94 -17.56)"/><path class="cls-2" d="M34,90.56l5.63-14.89a65.57,65.57,0,0,0,11.75,2.59,50.5,50.5,0,0,1-5.4,5.91C41.5,88.28,37.12,90.59,34,90.56Z" transform="translate(-7.94 -17.56)"/><path class="cls-1" d="M40.83,72.41l7.28-19.27A56.79,56.79,0,0,0,62.64,56Q61.91,58.51,61,61a67.53,67.53,0,0,1-7.26,14A61.08,61.08,0,0,1,40.83,72.41Z" transform="translate(-7.94 -17.56)"/><path class="cls-1" d="M66.25,56.08c7.41-.21,13.16-2.45,16.48-5.9a37.19,37.19,0,0,1-1.84,17.54c-1.45,3.29-7.18,6.06-14.74,7.1a52,52,0,0,1-8.44.44A72,72,0,0,0,64.23,62.2C65,60.17,65.67,58.13,66.25,56.08Z" transform="translate(-7.94 -17.56)"/><path class="cls-3" d="M81.83,45.62c-1.56,3.31-5.63,5.72-11.3,6.65q-1.64.25-3.39.36a60.92,60.92,0,0,0,1.57-19.26A32.37,32.37,0,0,0,66.58,24,37.69,37.69,0,0,1,81.83,45.62Z" transform="translate(-7.94 -17.56)"/><path class="cls-3" d="M49.52,17.77a35.51,35.51,0,0,0-8.22,5.12A55,55,0,0,0,28.82,37.52c-.51-.6-.95-1.17-1.33-1.7-2.93-4.11-4-8.39-2.95-11.85A37.7,37.7,0,0,1,49.52,17.77Z" transform="translate(-7.94 -17.56)"/><path class="cls-2" d="M8.33,49.74a34.44,34.44,0,0,0,4.77,8,48.92,48.92,0,0,0,7.4,7.57,53.52,53.52,0,0,0,.73,11.29A37.94,37.94,0,0,0,24.07,86,37.69,37.69,0,0,1,8.33,49.74Z" transform="translate(-7.94 -17.56)"/><path class="cls-2" d="M40.41,92.35a33.72,33.72,0,0,0,7.89-5.63,55.44,55.44,0,0,0,7.11-8.08,57,57,0,0,0,11.21-.37,36.4,36.4,0,0,0,10.57-3A37.71,37.71,0,0,1,40.41,92.35Z" transform="translate(-7.94 -17.56)"/></svg>